<?xml version="1.0" encoding="utf-8"?>
<svg width="800px" height="320.11624px" viewBox="0 0 800 320.11624" version="1.1" xmlns:xlink="http://www.w3.org/1999/xlink" xmlns="http://www.w3.org/2000/svg">
  <defs>
    <linearGradient gradientUnits="userSpaceOnUse" x1="1679586.9" y1="187940.05" x2="1612483.1" y2="331508.47" id="gradient_1">
      <stop offset="0%" stop-color="#000000" />
      <stop offset="100%" stop-color="#000000" stop-opacity="0" />
    </linearGradient>
    <path d="M3.05176e-05 0L800 0L800 320.116L3.05176e-05 320.116L3.05176e-05 0Z" id="path_1" />
    <clipPath id="mask_1">
      <use xlink:href="#path_1" />
    </clipPath>
  </defs>
  <g id="logo">
    <path d="M3.05176e-05 0L800 0L800 320.116L3.05176e-05 320.116L3.05176e-05 0Z" id="Background" fill="#000000" fill-opacity="0" fill-rule="evenodd" stroke="none" />
    <g id="layer1" transform="translate(0 1.4726963)">
      <g id="g6567">
        <path d="M452.583 297.461C477.239 299.672 502.902 298.119 524.867 290.754C544.928 283.318 566.896 278.07 588.86 279.529C588.86 276.587 595.247 274.304 591.549 272.093C583.369 267.598 573.282 268.422 563.197 263.904C546.72 257.197 536.748 245.173 520.274 236.89C518.481 236.254 511.197 232.465 511.197 228.7C568.8 235.407 639.292 225.029 695.103 240.655C701.491 242.136 717.965 236.984 731.636 232.465C748.113 226.512 788.337 229.492 798.424 222.691C800.105 222.056 781.06 211.522 777.362 208.486C767.386 197.271 742.622 199.57 729.846 187.526C709.783 167.305 679.638 162.065 654.758 145.52C649.268 142.578 638.282 143.911 630.103 142.348C619.833 134.566 629.589 134.516 551.192 76.557C481.152 51.4469 484.51 30.5661 441.069 16.0496C425.604 9.34304 411.251 -3.08512 398.475 0.703878C375.615 7.41054 326.457 33.5711 304.492 47.0952C286.224 58.3105 263.52 78.1405 247.943 90.9185C243.853 94.2727 196.593 135.458 142.501 166.306C88.4091 197.153 10.0449 239.555 3.20767 240.29C127.346 230.332 -106.802 277.739 452.583 297.461L452.583 297.461Z" id="path430" fill="#FFFFFF" stroke="url(#gradient_1)" stroke-width="1.6191101" stroke-linecap="round" />
        <path d="M138.511 169.759C169.426 152.319 287.73 85.0622 323.564 39.2774C318.477 39.7713 334.175 52.8216 333.125 58.3743C344.784 57.5958 338.366 45.6109 348.057 44.8321C355.526 44.8321 360.894 41.7147 367.312 39.2774C374.781 37.7183 370.458 42.3952 370.458 44.8321C360.894 63.1506 339.543 74.2581 322.383 88.5808C324.479 90.1394 326.575 91.6986 325.529 94.1331C331.813 94.8167 339.281 94.8167 343.604 91.015C344.653 90.2367 344.653 87.7998 344.653 86.241C351.072 88.5808 348.845 93.3549 346.75 96.5698C342.557 106.119 324.348 105.241 318.976 114.01C312.688 123.462 306.27 131.451 296.579 138.662C304.044 132.329 312.558 124.34 322.252 123.559C337.185 122 342.557 112.451 355.395 109.334C369.277 106.216 377.792 95.0111 388.536 86.241C384.345 92.5744 375.696 98.129 378.972 105.341C380.022 106.119 384.214 110.114 388.536 108.458C378.972 121.222 358.667 129.114 352.249 144.217C345.831 141.878 341.639 146.554 337.316 147.335C331.029 149.672 333.124 159.221 328.802 162.436C310.723 172.765 302.078 189.525 294.614 203.75C293.564 205.309 279.681 213.291 274.308 214.862C264.744 218.853 205.55 265.918 204.504 259.582C198.217 229.385 138.717 286.166 0 243.265" id="path436" fill="#2EC6D9" stroke="none" />
        <path d="M475.68 226.739C474.633 225.564 472.538 224.986 472.538 224.409C474.633 219.675 465.07 219.078 465.07 214.282C481.052 214.282 493.889 231.454 503.58 220.755C505.68 218.352 499.388 214.863 508.822 211.879C510.917 211.368 506.726 209.549 507.772 208.312C502.534 208.312 498.211 208.893 494.936 207.801C490.743 206.636 488.517 205.472 483.279 204.234C478.038 203.069 475.811 197.756 483.279 195.936C497.162 193.532 512.098 202.415 522.839 197.1C531.353 192.951 539.868 191.787 548.382 188.802C552.574 187.636 566.591 188.292 562.265 192.295C559.123 194.698 551.655 194.044 547.332 195.208C539.868 197.538 533.449 201.105 525.981 204.089C531.223 203.507 530.173 209.404 536.591 207.656C546.155 204.745 555.847 201.177 566.457 199.94C565.411 197.611 568.556 195.79 568.556 193.387C569.602 193.387 570.649 193.387 571.698 193.387C566.457 186.326 581.262 189.311 586.631 183.34C586.631 184.505 587.55 184.505 588.727 185.088C581.262 187.999 584.535 192.731 582.44 196.373C581.393 197.538 578.248 198.119 579.297 199.94C583.489 202.851 583.489 197.611 586.762 198.775C589.907 199.357 594.23 200.521 596.326 199.94C601.564 199.94 606.936 197.611 603.66 193.387C599.468 189.893 595.145 186.907 595.145 182.175C595.145 181.593 594.099 181.011 592.003 180.429C600.518 180.429 606.936 182.831 610.078 186.326C614.27 189.893 615.32 195.208 621.869 196.445C634.575 198.192 633.525 192.295 633.525 186.326C643.09 186.907 656.976 190.474 654.88 195.208C653.961 198.702 646.366 201.686 638.897 202.342C633.659 202.851 636.802 206.491 633.659 207.075C627.372 207.075 619.773 208.239 617.677 210.641C615.582 214.209 618.723 221.278 622.915 223.664C629.203 226.589 642.043 222.508 651.734 223.664C652.654 218.352 659.203 216.618 664.571 212.971C670.859 209.477 661.43 206.491 656.057 204.089C651.865 202.924 655.011 201.759 657.106 198.775C660.249 195.281 669.943 198.192 670.99 195.281C673.086 191.714 668.894 186.398 673.086 183.996C676.231 181.667 680.554 185.743 679.373 188.728C683.565 188.219 684.615 185.815 688.937 185.234C694.175 184.652 697.451 188.728 695.225 189.966C688.937 194.116 683.565 197.028 685.661 202.997C685.661 205.982 678.197 207.147 681.469 209.549C687.757 213.698 687.757 217.849 689.984 222.583C692.079 227.894 703.87 229.068 714.48 226.739C710.289 216.675 734.786 220.831 745.527 217.849C746.442 217.849 746.442 216.096 745.527 215.519C740.285 212.608 739.239 211.441 740.285 207.22C740.285 206.709 738.32 205.472 737.142 204.89C753.125 209.622 781.41 215.903 793.2 224.79C778.268 227.697 749.98 222.079 735.047 225.639C716.968 230.373 698.763 236.262 679.373 236.262C670.859 236.262 662.344 232.777 653.831 232.777C593.968 229.795 542.617 231.025 481.574 228.043C483.671 228.547 476.337 227.465 475.288 226.869" id="path3090" fill="#2EC6D9" stroke="none" />
        <g id="g6561" transform="translate(133.92618 149.69731)">
          <path d="M151.642 133.095C150.596 131.525 148.5 130.75 148.5 129.978C150.596 123.642 141.032 122.844 141.032 116.423C157.014 116.423 169.851 139.406 179.543 125.089C181.642 121.871 175.35 117.201 184.784 113.208C186.88 112.525 182.688 110.09 183.734 108.434C178.496 108.434 174.174 109.212 170.897 107.75C166.706 106.192 164.479 104.632 159.241 102.976C153.999 101.417 151.773 94.306 159.241 91.8691C173.124 88.6539 188.06 100.542 198.801 93.4277C207.316 87.8759 215.829 86.3165 224.344 82.321C228.536 80.7619 242.554 81.6395 238.228 86.9976C235.085 90.2126 227.617 89.3375 223.295 90.8961C215.829 94.0142 209.412 98.7879 201.943 102.782C207.185 102.003 206.135 109.895 212.554 107.556C222.118 103.659 231.809 98.8854 242.419 97.2295C241.373 94.1111 244.519 91.6745 244.519 88.4591C245.564 88.4591 246.611 88.4591 247.66 88.4591C242.419 79.0085 257.224 83.0038 262.593 75.0125C262.593 76.5712 263.512 76.5712 264.689 77.3517C257.224 81.248 260.497 87.5813 258.401 92.4555C257.355 94.0141 254.21 94.7921 255.259 97.2294C259.451 101.126 259.451 94.1111 262.724 95.6701C265.87 96.4486 270.192 98.0074 272.288 97.2294C277.526 97.2294 282.898 94.1111 279.622 88.4591C275.43 83.7823 271.107 79.7864 271.107 73.453C271.107 72.6748 270.061 71.8941 267.965 71.1161C276.479 71.1161 282.898 74.3309 286.04 79.0084C290.232 83.7822 291.281 90.896 297.831 92.5525C310.537 94.8894 309.487 86.9975 309.487 79.0084C319.051 79.7864 332.938 84.5606 330.842 90.896C329.923 95.5731 322.328 99.5664 314.86 100.444C309.622 101.126 312.764 105.997 309.622 106.778C303.334 106.778 295.735 108.337 293.639 111.552C291.543 116.326 294.686 125.787 298.877 128.98C305.165 132.896 318.005 127.434 327.696 128.98C328.615 121.871 335.165 119.551 340.533 114.67C346.821 109.993 337.392 105.997 332.019 102.782C327.827 101.223 330.973 99.6638 333.069 95.6701C336.211 90.9937 345.905 94.8895 346.952 90.9937C349.048 86.2194 344.856 79.1053 349.048 75.89C352.193 72.7722 356.516 78.2271 355.335 82.2232C359.527 81.5424 360.577 78.3246 364.899 77.5465C370.137 76.768 373.413 82.2232 371.187 83.8796C364.899 89.4344 359.527 93.3308 361.623 101.32C361.623 105.316 354.159 106.875 357.432 110.09C363.719 115.643 363.719 121.198 365.946 127.533C368.042 134.642 379.832 136.213 390.443 133.095C386.25 119.626 410.748 125.188 421.489 121.198C422.404 121.198 422.404 118.853 421.489 118.08C416.246 114.183 415.201 112.622 416.246 106.972C416.246 106.289 414.282 104.632 413.104 103.854C429.087 110.188 447.293 112.622 459.083 124.515C444.151 128.406 425.942 126.86 411.009 131.624C392.931 137.959 374.725 145.841 355.335 145.841C346.822 145.841 338.306 141.177 329.793 141.177C269.93 137.186 218.58 138.833 157.537 134.841C159.633 135.515 152.3 134.068 151.25 133.27" id="path440" fill="#2EC6D9" stroke="none" />
          <path d="M277.605 159.767C307.256 157.199 312.678 179.215 331.471 159.218C349.372 161.786 365.657 155.534 365.817 153.067C407.575 160.077 535.97 144.483 527.158 136.01C513.376 121.848 491.597 117.045 474.143 105.073C470.26 102.896 462.274 101.914 456.37 100.519C446.516 97.9712 433.619 100.557 425.167 96.6433C411.564 89.8697 397.157 84.0747 384.992 75.3949C377.344 70.5034 374.504 62.4035 366.104 56.4384C357.127 50.4966 344.449 49.708 335.316 46.1761C321.582 41.3907 313.681 29.0445 300.779 20.3211C296.305 17.1322 288.879 17.6457 283.722 14.8475C272.722 9.75052 264.019 -1.69162 254.533 0.211273C237.562 3.56839 227.964 17.2934 211.356 25.1595C197.546 31.68 191.459 43.1554 179.546 50.8224C176.417 52.835 140.168 77.6797 99.3744 95.4391C58.5798 113.199 5.0213 134.831 0 135.003C0 135.003 37.4361 159.668 122.363 153.473L174.926 167.909L203.827 162.06C203.827 162.06 276.214 159.681 277.605 159.767L277.605 159.767Z" id="path1871" fill="#FFFFFF" stroke="#FFFFFF" stroke-width="1.1133943" />
          <path d="M91.2902 102.241C110.089 92.8218 182.022 56.501 203.741 31.9157C200.642 32.1955 210.247 39.1219 209.621 42.0938C216.727 41.641 212.781 35.2548 218.687 34.808C223.239 34.7846 226.504 33.1017 230.411 31.7788C234.959 30.9217 232.336 33.4355 232.343 34.7379C226.562 44.5597 213.578 50.564 203.157 58.2734C204.438 59.1003 205.721 59.9274 205.089 61.2316C208.922 61.5772 213.474 61.5539 216.099 59.5082C216.736 59.0888 216.73 57.7866 216.726 56.9533C220.645 58.1837 219.3 60.7425 218.032 62.468C215.502 67.585 204.4 67.1729 201.149 71.8773C197.342 76.9486 193.451 81.2392 187.562 85.1245C192.096 81.7159 197.264 77.4187 203.172 76.9708C212.271 76.0909 215.519 70.9699 223.336 69.2638C231.791 67.5537 236.951 61.5376 243.476 56.816C240.938 60.2142 235.682 63.2107 237.698 67.055C238.341 67.4678 240.907 69.5904 243.537 68.6917C237.742 75.5442 225.386 79.8265 221.514 87.9196C217.595 86.6889 215.053 89.2021 212.42 89.6325C208.593 90.9019 209.897 95.9991 207.271 97.7314C196.279 103.309 191.055 112.295 186.543 119.921C185.907 120.758 177.466 125.069 174.195 125.925C168.376 128.088 132.421 153.431 131.765 150.048C127.85 133.927 92.9484 159.028 8.2692 136.529" id="path3088" fill="#2EC6D9" stroke="none" />
          <path d="M301.245 20.404C301.382 20.5755 301.611 20.6495 301.626 20.7372C301.532 21.4699 302.528 21.4977 302.65 22.2262C301.011 22.3311 299.258 19.8076 298.537 21.4961C298.383 21.8749 299.117 22.3635 298.226 22.8786C298.024 22.97 298.5 23.2187 298.425 23.4134C298.962 23.3789 299.39 23.2623 299.754 23.4062C300.213 23.5555 300.471 23.7177 301.039 23.8712C301.606 24.0138 301.97 24.8061 301.251 25.1316C299.889 25.5877 298.132 24.3369 297.166 25.2148C296.399 25.9008 295.556 26.1336 294.759 26.643C294.359 26.8476 292.906 26.8401 293.247 26.2036C293.508 25.8181 294.29 25.8684 294.703 25.6631C295.409 25.2602 295.976 24.6763 296.666 24.174C296.143 24.2968 296.1 23.3945 295.487 23.702C294.581 24.207 293.678 24.8125 292.622 25.0702C292.789 25.417 292.514 25.7142 292.573 26.0792C292.466 26.0865 292.359 26.0937 292.251 26.0999C292.969 27.1377 291.375 26.7817 290.977 27.7239C290.948 27.547 290.853 27.553 290.717 27.4721C291.408 26.981 290.952 26.2838 291.074 25.717C291.152 25.5332 291.459 25.4242 291.305 25.1546C290.802 24.74 290.935 25.5359 290.57 25.3806C290.233 25.313 289.76 25.1645 289.56 25.2666C289.023 25.3011 288.532 25.69 288.975 26.31C289.494 26.813 290.013 27.2381 290.134 27.9567C290.152 28.0451 290.272 28.1267 290.5 28.2013C289.628 28.2574 288.909 27.9346 288.497 27.4244C287.977 26.9103 287.734 26.11 287.031 25.9651C285.684 25.7834 285.942 26.672 286.094 27.5785C285.099 27.5531 283.584 27.1027 283.678 26.3699C283.678 25.8332 284.386 25.3302 285.135 25.1814C285.659 25.0697 285.244 24.5376 285.551 24.4283C286.196 24.3869 286.945 24.1601 287.098 23.7816C287.222 23.226 286.72 22.1731 286.23 21.8383C285.511 21.4353 284.298 22.1396 283.276 22.0277C283.317 22.8404 282.69 23.1468 282.232 23.7359C281.677 24.308 282.719 24.6994 283.331 25.029C283.791 25.1784 283.498 25.3759 283.359 25.8429C283.126 26.3942 282.058 26.0158 282.025 26.4648C281.901 27.0202 282.466 27.8 282.097 28.1924C281.834 28.5669 281.287 27.9762 281.332 27.5151C280.915 27.6199 280.869 27.9919 280.441 28.1086C279.919 28.2314 279.479 27.6339 279.676 27.4314C280.214 26.7597 280.691 26.2822 280.324 25.3894C280.248 24.9361 280.983 24.7101 280.586 24.3668C279.836 23.778 279.73 23.1477 279.381 22.4433C279.031 21.6504 277.793 21.5497 276.764 21.9732C277.451 23.474 274.834 23.0038 273.809 23.5273C273.714 23.5327 273.76 23.7995 273.868 23.8811C274.48 24.2887 274.617 24.4591 274.617 25.1071C274.635 25.1845 274.863 25.3596 274.999 25.4402C273.24 24.8266 270.18 24.0586 268.745 22.7866C270.202 22.2469 273.245 22.9141 274.685 22.2753C276.417 21.4377 278.133 20.4235 280.121 20.2961C280.994 20.2402 281.955 20.7135 282.828 20.6575C289.04 20.717 294.273 20.1926 300.606 20.2442C300.378 20.1814 301.157 20.2975 301.28 20.3811" id="path14697" fill="#2EC6D9" stroke="none" />
        </g>
      </g>
    </g>
  </g>
</svg>